<svg width="251" height="48" fill="none" xmlns="http://www.w3.org/2000/svg"><g clip-path="url(#clip0)" fill="#C6000E"><path d="M51.441 14.002h8.868c1.006 0 2.013.102 3.01.295.997.194 1.89.545 2.677 1.043.788.498 1.415 1.172 1.909 2.003.484.84.721 1.891.721 3.146 0 1.227-.313 2.307-.93 3.239-.617.932-1.51 1.651-2.668 2.159l5.222 8.11h-7.947l-3.94-7.141h-.2v7.142h-6.712V14.002h-.01zm6.656 8.443h1.358c.227 0 .484-.018.769-.055.275-.037.54-.12.778-.24.237-.12.446-.295.608-.508.161-.221.247-.507.247-.858 0-.36-.067-.636-.2-.849a1.245 1.245 0 0 0-.522-.461 2.135 2.135 0 0 0-.693-.194 6.396 6.396 0 0 0-.693-.046h-1.643v3.211h-.01zm11.279 1.44c0-1.597.294-3.045.874-4.337a9.617 9.617 0 0 1 2.392-3.294c1.016-.904 2.222-1.596 3.618-2.095 1.395-.489 2.905-.738 4.529-.738 1.623 0 3.142.25 4.538.738a10.97 10.97 0 0 1 3.636 2.095 9.543 9.543 0 0 1 2.412 3.294c.58 1.292.873 2.731.873 4.337 0 1.605-.294 3.063-.873 4.383a9.866 9.866 0 0 1-2.412 3.377c-1.025.932-2.24 1.652-3.636 2.16-1.396.507-2.905.765-4.538.765-1.624 0-3.134-.258-4.53-.766-1.395-.507-2.6-1.227-3.617-2.16a9.946 9.946 0 0 1-2.392-3.376c-.58-1.32-.874-2.778-.874-4.383zm7.358 0c0 .655.105 1.264.304 1.808.2.545.484 1.015.845 1.412s.788.701 1.291.914a3.979 3.979 0 0 0 1.624.323c.58 0 1.12-.111 1.614-.323a3.929 3.929 0 0 0 1.291-.914c.37-.397.656-.867.855-1.412.2-.544.304-1.144.304-1.808 0-.637-.105-1.227-.304-1.763a3.984 3.984 0 0 0-.855-1.356 3.82 3.82 0 0 0-1.29-.858 4.219 4.219 0 0 0-1.615-.314c-.58 0-1.12.102-1.624.314-.503.212-.94.498-1.29.858-.362.37-.637.821-.846 1.356a5.024 5.024 0 0 0-.304 1.763zm16.284.11c0-1.596.294-3.054.873-4.346a9.956 9.956 0 0 1 2.383-3.33c1.007-.924 2.193-1.634 3.56-2.132 1.368-.499 2.83-.748 4.378-.748 1.585 0 3.085.25 4.5.748s2.601 1.171 3.551 2.02l-4.244 4.974a3.803 3.803 0 0 0-1.453-1.117c-.579-.258-1.234-.378-1.946-.378a4.5 4.5 0 0 0-1.624.295 3.82 3.82 0 0 0-2.202 2.233 4.896 4.896 0 0 0-.323 1.79c0 .655.114 1.246.332 1.763.218.517.522.969.902 1.338.38.378.817.664 1.32.858a4.404 4.404 0 0 0 1.595.295c.797 0 1.481-.157 2.051-.48.569-.323 1.025-.701 1.348-1.135l4.244 4.946c-.931.904-2.07 1.624-3.428 2.16-1.357.534-2.895.802-4.623.802-1.548 0-3.01-.258-4.377-.766-1.368-.507-2.554-1.227-3.56-2.159a10.145 10.145 0 0 1-2.384-3.331c-.58-1.283-.873-2.713-.873-4.3zm26.84 2.04h-.057v7.963h-6.712V14.002h6.684v7.373h.057l5.497-7.373h8.137l-7.729 9.144 8.109 10.852h-8.488l-5.498-7.963z"/><path d="M145.854 33.998h-6.978l-5.602-19.996h7.32l2.213 11.239h.113l2.384-11.239h7.234l2.592 11.239h.114l2.231-11.239h7.093l-5.725 19.996h-6.969l-2.906-11.294h-.123l-2.991 11.294zm17.622-10.113c0-1.597.294-3.045.873-4.337a9.627 9.627 0 0 1 2.393-3.294c1.016-.904 2.222-1.596 3.617-2.095 1.396-.489 2.906-.738 4.539-.738 1.623 0 3.133.25 4.529.738 1.395.49 2.601 1.19 3.636 2.095a9.547 9.547 0 0 1 2.412 3.294c.579 1.292.873 2.731.873 4.337 0 1.605-.294 3.063-.873 4.383a9.87 9.87 0 0 1-2.412 3.377c-1.025.932-2.241 1.652-3.636 2.16-1.396.507-2.906.765-4.529.765-1.624 0-3.143-.258-4.539-.766-1.395-.507-2.601-1.227-3.617-2.16a9.956 9.956 0 0 1-2.393-3.376c-.579-1.32-.873-2.778-.873-4.383zm7.358 0c0 .655.105 1.264.304 1.808.199.545.484 1.015.845 1.412s.788.701 1.291.914a3.98 3.98 0 0 0 1.624.323c.579 0 1.12-.111 1.614-.323a3.922 3.922 0 0 0 1.291-.914 4.13 4.13 0 0 0 .855-1.412 5.221 5.221 0 0 0 .303-1.808c0-.637-.104-1.227-.303-1.763a3.984 3.984 0 0 0-.855-1.356 3.909 3.909 0 0 0-1.291-.858 4.22 4.22 0 0 0-1.614-.314c-.579 0-1.121.102-1.624.314a4.01 4.01 0 0 0-1.291.858c-.361.36-.636.821-.845 1.356a5.033 5.033 0 0 0-.304 1.763zm16.283 0c0-1.597.295-3.045.874-4.337a9.611 9.611 0 0 1 2.392-3.294c1.016-.904 2.222-1.596 3.618-2.095 1.395-.489 2.905-.738 4.538-.738 1.624 0 3.133.25 4.529.738 1.396.49 2.601 1.19 3.636 2.095a9.534 9.534 0 0 1 2.412 3.294c.579 1.292.873 2.731.873 4.337 0 1.605-.294 3.063-.873 4.383a9.856 9.856 0 0 1-2.412 3.377c-1.025.932-2.24 1.652-3.636 2.16-1.396.507-2.905.765-4.529.765s-3.143-.258-4.538-.766c-1.396-.507-2.602-1.227-3.618-2.16a9.94 9.94 0 0 1-2.392-3.376c-.579-1.32-.874-2.778-.874-4.383zm7.358 0c0 .655.105 1.264.304 1.808.2.545.484 1.015.845 1.412s.788.701 1.291.914a3.984 3.984 0 0 0 1.624.323c.579 0 1.12-.111 1.614-.323a3.922 3.922 0 0 0 1.291-.914c.371-.397.655-.867.855-1.412a5.22 5.22 0 0 0 .304-1.808c0-.637-.105-1.227-.304-1.763a3.984 3.984 0 0 0-.855-1.356 3.909 3.909 0 0 0-1.291-.858 4.22 4.22 0 0 0-1.614-.314c-.579 0-1.12.102-1.624.314a4.01 4.01 0 0 0-1.291.858c-.361.36-.636.821-.845 1.356-.209.536-.304 1.126-.304 1.763zm16.72-9.883h6.969v14.2H225v5.796h-13.805V14.002zM0 44h40V4H0v40zm18.505-17.513L14 33.997H3.996l11.98-19.995h2.52v12.485h.009zm7.494 7.51l-4.504-7.51V14.002h2.52l11.98 19.996h-9.996zm194.036-17.632c0-.342.066-.665.199-.95a2.436 2.436 0 0 1 1.32-1.265 2.568 2.568 0 0 1 1.918 0c.303.12.569.286.788.498.228.213.408.462.531.757.133.286.2.6.2.941 0 .342-.067.665-.2.96a2.45 2.45 0 0 1-.531.756 2.673 2.673 0 0 1-.788.508 2.568 2.568 0 0 1-1.918 0 2.466 2.466 0 0 1-.788-.498 2.296 2.296 0 0 1-.532-.757 2.277 2.277 0 0 1-.199-.95zm.398 0c0 .286.057.553.162.802.104.25.256.462.446.646.19.185.408.323.665.434.247.102.522.157.816.157a2.1 2.1 0 0 0 1.481-.59c.19-.185.342-.397.447-.656.104-.249.161-.517.161-.812a2.07 2.07 0 0 0-.161-.803 1.95 1.95 0 0 0-.447-.645 1.982 1.982 0 0 0-.664-.425 2.14 2.14 0 0 0-.817-.157 2.104 2.104 0 0 0-1.481.59 1.93 1.93 0 0 0-.446.647c-.105.24-.162.516-.162.812zm1.168-1.384h1.045c.341 0 .598.064.759.184.162.13.247.332.247.61 0 .248-.076.433-.218.543a.934.934 0 0 1-.532.203l.817 1.218h-.428l-.778-1.19H222v1.19h-.399v-2.758zm.39 1.236h.484c.095 0 .19 0 .285-.01a.956.956 0 0 0 .246-.055.316.316 0 0 0 .171-.138.495.495 0 0 0 .067-.258.44.44 0 0 0-.057-.231.345.345 0 0 0-.152-.13.78.78 0 0 0-.209-.055c-.076-.009-.152-.009-.228-.009h-.617v.886h.01z"/></g><path stroke="#C6000E" stroke-width="2" d="M250 0v48"/><defs><clipPath id="clip0"><path fill="#fff" transform="translate(0 4)" d="M0 0h225v40H0z"/></clipPath></defs></svg>